<svg width="21" height="21" viewBox="0 0 21 21" fill="none" xmlns="http://www.w3.org/2000/svg">
<path opacity="0.4" d="M0.953125 11.4492L4.14453 12.2461C4.46484 12.3242 4.80078 12.2305 5.03516 12L5.61328 11.4219C6.06641 10.9688 6.82812 11.0938 7.11328 11.6641L7.47656 12.3867C7.66406 12.7617 8.04687 13 8.46875 13C9.0625 13 9.48828 12.4297 9.31641 11.8594L9.08203 11.082C8.90234 10.4805 9.35156 9.875 9.98047 9.875H10.0703C10.5938 9.875 11.082 9.61328 11.3711 9.17969L11.7891 8.55078C12.0078 8.21875 11.9961 7.78516 11.7578 7.46875L11.1289 6.62891C10.7266 6.09375 11 5.32031 11.6523 5.15625L12.3398 4.98438C12.6211 4.91406 12.8516 4.71875 12.9688 4.45703L14.4414 1.14062C18.2227 2.57031 20.9102 6.22266 20.9102 10.5C20.9102 11.4844 20.7695 12.4375 20.5039 13.3359C20.4922 13.3242 20.4766 13.3125 20.4609 13.3047L19.2148 12.4062C18.9844 12.2383 18.6914 12.1875 18.4141 12.2656L17.8867 12.4141C17.625 12.4883 17.3477 12.3789 17.2031 12.1523L17.125 12.0313C16.8906 11.6641 16.4844 11.4414 16.0469 11.4414C15.6094 11.4414 15.2031 11.6641 14.9688 12.0313L14.7305 12.4023C14.6758 12.4883 14.5977 12.5625 14.5078 12.6094L13.0977 13.3945C12.3906 13.7891 12.1016 14.6602 12.4336 15.3984L12.6484 15.8828C12.9844 16.6328 13.8477 16.9961 14.6172 16.707L14.7617 16.6523C15.1289 16.5156 15.543 16.5586 15.8711 16.7734L17.6328 17.9023C15.8594 19.5156 13.5 20.5 10.9102 20.5C5.70703 20.5 1.43359 16.5273 0.953125 11.4492ZM7.30859 13.6445C6.97266 13.5625 6.63281 13.7656 6.55078 14.0977C6.46875 14.4297 6.67188 14.7734 7.00391 14.8555L8.25391 15.168C8.58984 15.25 8.92969 15.0469 9.01172 14.7148C9.09375 14.3828 8.89062 14.0391 8.55859 13.957L7.30859 13.6445ZM10.5977 14.0742C10.9336 14.1562 11.2734 13.9531 11.3555 13.6211L11.668 12.3711C11.75 12.0352 11.5469 11.6953 11.2148 11.6133C10.8828 11.5312 10.5391 11.7344 10.457 12.0664L10.1445 13.3164C10.0625 13.6523 10.2656 13.9922 10.5977 14.0742ZM14.5937 5.78125C14.75 5.47266 14.6211 5.09766 14.3125 4.94141C14.0039 4.78516 13.6289 4.91406 13.4727 5.22266L12.8477 6.47266C12.6914 6.78125 12.8203 7.15625 13.1289 7.3125C13.4375 7.46875 13.8125 7.33984 13.9687 7.03125L14.5937 5.78125Z" fill="#6682A9"/>
<path d="M0.953125 11.4492L4.14453 12.2461C4.46484 12.3242 4.80078 12.2305 5.03516 12L5.61328 11.4219C6.06641 10.9688 6.82812 11.0937 7.11328 11.6641L7.47656 12.3867C7.66406 12.7617 8.04688 13 8.46875 13C9.0625 13 9.48828 12.4297 9.31641 11.8594L9.08203 11.082C8.90234 10.4805 9.35156 9.875 9.98047 9.875H10.0703C10.5938 9.875 11.082 9.61328 11.3711 9.17969L11.7891 8.55078C12.0078 8.21875 11.9961 7.78516 11.7578 7.46875L11.1289 6.62891C10.7266 6.09375 11 5.32031 11.6523 5.15625L12.3398 4.98438C12.6211 4.91406 12.8516 4.71875 12.9688 4.45703L14.4414 1.14062C13.3438 0.726562 12.1523 0.5 10.9102 0.5C5.38672 0.5 0.910156 4.97656 0.910156 10.5C0.910156 10.8203 0.925781 11.1367 0.953125 11.4492ZM20.5 13.3359C20.4883 13.3242 20.4727 13.3125 20.457 13.3047L19.2109 12.4062C18.9805 12.2383 18.6875 12.1875 18.4102 12.2656L17.8828 12.4141C17.6211 12.4883 17.3438 12.3789 17.1992 12.1523L17.1211 12.0312C16.8867 11.6641 16.4805 11.4414 16.043 11.4414C15.6055 11.4414 15.1992 11.6641 14.9648 12.0312L14.7266 12.4023C14.6719 12.4883 14.5938 12.5625 14.5039 12.6094L13.0977 13.3945C12.3906 13.7891 12.1016 14.6602 12.4336 15.3984L12.6484 15.8828C12.9844 16.6328 13.8477 16.9961 14.6172 16.707L14.7617 16.6523C15.1289 16.5156 15.543 16.5586 15.8711 16.7734L17.6328 17.9023C18.9688 16.6875 19.9766 15.1133 20.5039 13.3359H20.5ZM6.55469 14.0977C6.47266 14.4336 6.67578 14.7734 7.00781 14.8555L8.25781 15.168C8.59375 15.25 8.93359 15.0469 9.01562 14.7148C9.09766 14.3828 8.89453 14.0391 8.5625 13.957L7.3125 13.6445C6.97656 13.5625 6.63672 13.7656 6.55469 14.0977ZM10.1484 13.3164C10.0664 13.6523 10.2695 13.9922 10.6016 14.0742C10.9336 14.1562 11.2773 13.9531 11.3594 13.6211L11.6719 12.3711C11.7539 12.0352 11.5508 11.6953 11.2188 11.6133C10.8867 11.5312 10.543 11.7344 10.4609 12.0664L10.1484 13.3164ZM14.3164 4.94141C14.0078 4.78516 13.6328 4.91406 13.4766 5.22266L12.8516 6.47266C12.6953 6.78125 12.8242 7.15625 13.1328 7.3125C13.4414 7.46875 13.8164 7.33984 13.9727 7.03125L14.5977 5.78125C14.7539 5.47266 14.625 5.09766 14.3164 4.94141Z" fill="#6682A9"/>
</svg>
